<svg width="96" height="23" viewBox="0 0 96 23" fill="none" xmlns="http://www.w3.org/2000/svg">
<path d="M6.9 10.625H3.65V18H0.45V0.499999H3.65V7.825H7L12.025 0.499999H15.475L9.5 8.975L15.7 18H12.025L6.9 10.625ZM29.9979 4.65V18H26.8729V7.3H21.8729L21.7479 9.95C21.6645 11.7167 21.4979 13.2 21.2479 14.4C21.0145 15.5833 20.6062 16.525 20.0229 17.225C19.4562 17.9083 18.6729 18.25 17.6729 18.25C17.2062 18.25 16.6312 18.1583 15.9479 17.975L16.0979 15.35C16.3312 15.4 16.5312 15.425 16.6979 15.425C17.3312 15.425 17.8062 15.175 18.1229 14.675C18.4395 14.1583 18.6395 13.55 18.7229 12.85C18.8229 12.1333 18.9062 11.1167 18.9729 9.8L19.1979 4.65H29.9979ZM46.7064 11.4C46.7064 11.6167 46.6898 11.925 46.6564 12.325H36.1814C36.3648 13.3083 36.8398 14.0917 37.6064 14.675C38.3898 15.2417 39.3564 15.525 40.5064 15.525C41.9731 15.525 43.1814 15.0417 44.1314 14.075L45.8064 16C45.2064 16.7167 44.4481 17.2583 43.5314 17.625C42.6148 17.9917 41.5814 18.175 40.4314 18.175C38.9648 18.175 37.6731 17.8833 36.5564 17.3C35.4398 16.7167 34.5731 15.9083 33.9564 14.875C33.3564 13.825 33.0564 12.6417 33.0564 11.325C33.0564 10.025 33.3481 8.85833 33.9314 7.825C34.5314 6.775 35.3564 5.95833 36.4064 5.375C37.4564 4.79167 38.6398 4.5 39.9564 4.5C41.2564 4.5 42.4148 4.79167 43.4314 5.375C44.4648 5.94167 45.2648 6.75 45.8314 7.8C46.4148 8.83333 46.7064 10.0333 46.7064 11.4ZM39.9564 7C38.9564 7 38.1064 7.3 37.4064 7.9C36.7231 8.48333 36.3064 9.26667 36.1564 10.25H43.7314C43.5981 9.28333 43.1898 8.5 42.5064 7.9C41.8231 7.3 40.9731 7 39.9564 7ZM59.7994 11.05C61.4494 11.55 62.2744 12.6167 62.2744 14.25C62.2744 15.45 61.8244 16.375 60.9244 17.025C60.0244 17.675 58.6911 18 56.9244 18H50.1244V4.65H56.6494C58.2827 4.65 59.5577 4.95 60.4744 5.55C61.3911 6.15 61.8494 7 61.8494 8.1C61.8494 8.78333 61.6661 9.375 61.2994 9.875C60.9494 10.375 60.4494 10.7667 59.7994 11.05ZM53.0994 10.225H56.3744C57.9911 10.225 58.7994 9.66667 58.7994 8.55C58.7994 7.46667 57.9911 6.925 56.3744 6.925H53.0994V10.225ZM56.6744 15.725C58.3911 15.725 59.2494 15.1667 59.2494 14.05C59.2494 13.4667 59.0494 13.0333 58.6494 12.75C58.2494 12.45 57.6244 12.3 56.7744 12.3H53.0994V15.725H56.6744ZM78.1029 11.4C78.1029 11.6167 78.0863 11.925 78.0529 12.325H67.5779C67.7613 13.3083 68.2363 14.0917 69.0029 14.675C69.7863 15.2417 70.7529 15.525 71.9029 15.525C73.3696 15.525 74.5779 15.0417 75.5279 14.075L77.2029 16C76.6029 16.7167 75.8446 17.2583 74.9279 17.625C74.0113 17.9917 72.9779 18.175 71.8279 18.175C70.3613 18.175 69.0696 17.8833 67.9529 17.3C66.8363 16.7167 65.9696 15.9083 65.3529 14.875C64.7529 13.825 64.4529 12.6417 64.4529 11.325C64.4529 10.025 64.7446 8.85833 65.3279 7.825C65.9279 6.775 66.7529 5.95833 67.8029 5.375C68.8529 4.79167 70.0363 4.5 71.3529 4.5C72.6529 4.5 73.8113 4.79167 74.8279 5.375C75.8613 5.94167 76.6613 6.75 77.2279 7.8C77.8113 8.83333 78.1029 10.0333 78.1029 11.4ZM71.3529 7C70.3529 7 69.5029 7.3 68.8029 7.9C68.1196 8.48333 67.7029 9.26667 67.5529 10.25H75.1279C74.9946 9.28333 74.5863 8.5 73.9029 7.9C73.2196 7.3 72.3696 7 71.3529 7ZM88.9209 4.5C90.2209 4.5 91.3792 4.78333 92.3959 5.35C93.4292 5.91667 94.2376 6.71667 94.8209 7.75C95.4042 8.78333 95.6959 9.975 95.6959 11.325C95.6959 12.675 95.4042 13.875 94.8209 14.925C94.2376 15.9583 93.4292 16.7583 92.3959 17.325C91.3792 17.8917 90.2209 18.175 88.9209 18.175C87.1209 18.175 85.6959 17.575 84.6459 16.375V22.85H81.5209V4.65H84.4959V6.4C85.0126 5.76667 85.6459 5.29167 86.3959 4.975C87.1626 4.65833 88.0042 4.5 88.9209 4.5ZM88.5709 15.5C89.7209 15.5 90.6626 15.1167 91.3959 14.35C92.1459 13.5833 92.5209 12.575 92.5209 11.325C92.5209 10.075 92.1459 9.06667 91.3959 8.3C90.6626 7.53333 89.7209 7.15 88.5709 7.15C87.8209 7.15 87.1459 7.325 86.5459 7.675C85.9459 8.00833 85.4709 8.49167 85.1209 9.125C84.7709 9.75833 84.5959 10.4917 84.5959 11.325C84.5959 12.1583 84.7709 12.8917 85.1209 13.525C85.4709 14.1583 85.9459 14.65 86.5459 15C87.1459 15.3333 87.8209 15.5 88.5709 15.5Z" fill="white"/>
</svg>
