<?xml version="1.0" encoding="utf-8"?>
<!-- Generator: Adobe Illustrator 17.1.0, SVG Export Plug-In . SVG Version: 6.00 Build 0)  -->
<!DOCTYPE svg PUBLIC "-//W3C//DTD SVG 1.1//EN" "http://www.w3.org/Graphics/SVG/1.1/DTD/svg11.dtd">
<svg version="1.1" id="Layer_1" xmlns="http://www.w3.org/2000/svg" xmlns:xlink="http://www.w3.org/1999/xlink" x="0px" y="0px"
	 viewBox="0 0 59.2 67.7" enable-background="new 0 0 59.2 67.7" xml:space="preserve">
<g>
	<g>
		<path fill="#DB3E58" d="M4.2,0h36l19.1,19v44.5c0,2.3-1.9,4.2-4.2,4.2H4.2c-2.3,0-4.2-1.9-4.2-4.2V4.2C0,1.9,1.9,0,4.2,0z"/>
	</g>
	<path fill="#C02431" d="M59.2,19H44.4c-2.3,0-4.2-1.9-4.2-4.2V0L59.2,19z"/>
	<g>
		<path fill="#FFFFFF" d="M15,41.2v-9.5c0-0.4,0.1-0.8,0.4-1c0.3-0.2,0.6-0.4,1-0.4h3.4c1.1,0,2.1,0.3,2.9,1
			c0.9,0.8,1.3,1.8,1.3,3.1c0,1.2-0.4,2.2-1.1,3c-0.7,0.8-1.7,1.1-3,1.1h-2.1v2.6c0,0.5-0.1,0.8-0.4,1.1c-0.3,0.3-0.6,0.4-1,0.4
			c-0.4,0-0.8-0.1-1-0.4C15.1,42,15,41.7,15,41.2z M17.8,36.1h1.5c0.6,0,1-0.2,1.3-0.5c0.3-0.3,0.5-0.7,0.5-1.2
			c0-0.5-0.2-0.9-0.5-1.2c-0.3-0.3-0.8-0.4-1.3-0.4h-1.5V36.1z"/>
		<path fill="#FFFFFF" d="M25.3,41.2v-9.4c0-0.4,0.1-0.8,0.4-1c0.3-0.2,0.6-0.4,1-0.4h3.3c1.7,0,3.1,0.6,4.2,1.8
			c1,1.1,1.5,2.5,1.5,4.2c0,1.9-0.6,3.5-1.7,4.6c-1.1,1.1-2.4,1.6-4,1.6h-3.3c-0.4,0-0.7-0.1-1-0.4C25.4,41.9,25.3,41.6,25.3,41.2z
			 M28,40h1.5c1,0,1.8-0.3,2.4-1c0.5-0.6,0.8-1.5,0.8-2.6c0-1.1-0.2-1.9-0.7-2.5c-0.5-0.6-1.3-0.9-2.3-0.9c0,0,0,0,0,0H28V40z"/>
		<path fill="#FFFFFF" d="M37.3,41.2v-9.5c0-0.4,0.1-0.8,0.4-1c0.3-0.2,0.6-0.4,1-0.4h5.2c0.4,0,0.8,0.1,1,0.3
			c0.2,0.2,0.4,0.5,0.4,1c0,0.4-0.1,0.7-0.4,0.9c-0.2,0.2-0.6,0.3-1,0.3H40v2.2h3.5c0.4,0,0.8,0.1,1,0.3c0.2,0.2,0.4,0.5,0.4,0.9
			c0,0.9-0.5,1.3-1.4,1.3c0,0,0,0,0,0H40v3.5c0,0.5-0.1,0.8-0.4,1.1s-0.6,0.4-1,0.4c-0.4,0-0.8-0.1-1-0.4
			C37.4,42,37.3,41.7,37.3,41.2z"/>
	</g>
</g>
</svg>
